# xmcd
#
# Track frame offsets: 
#        150
#        35050
#        50870
#        84325
#        120035
#
# Disc length: 2489 seconds
#
# Revision: 2
# Processed by: cddbd v1.5.2PL0 Copyright (c) Steve Scherf et al.
# Submitted via: ExactAudioCopy v0.99pb5
#
DISCID=3709b705
DTITLE=Chico Freeman - Beyond The Rain
DYEAR=1977
DGENRE=Jazz
TTITLE0=Two Over One
TTITLE1=Beyond The Rain
TTITLE2=Excerpts
TTITLE3=My One And Only Love
TTITLE4=Pepe's Samba
EXTD=YEAR: 1977
EXTT0=
EXTT1=
EXTT2=
EXTT3=
EXTT4=
PLAYORDER=
